<svg xmlns="http://www.w3.org/2000/svg" width="84.63" height="84.63"><path d="M42.43 3.315c-14.3 0-28.4-.7-42.4-2-.8 16.5 14.5 32.1 33.8 35.9l3.2.4c.9-6.1 5.3-29 6.9-34.4-.5.1-1 .1-1.5.1z" fill="#a49dff"/><path d="M43.93 3.315s22.8 16.5 31.5 38.6c4-13.2 7-27 9.2-40.6-13.7 1.3-27.2 2-40.7 2z" fill="#28289a"/><path d="M37.03 37.715l-.5 3.2s-4.1 33 24.8 42.4c5.4-13.5 10.1-27.3 14.1-41.4-17.3-1.3-38.4-4.2-38.4-4.2z" fill="#5adcee"/><path d="M43.93 3.315c-1.6 5.4-6 28.2-6.9 34.4 0 0 21.1 2.9 38.4 4.2-8.8-22.1-31.5-38.6-31.5-38.6z" fill="#7878ff"/></svg>