<svg xmlns="http://www.w3.org/2000/svg" width="387.022" height="387.022"><g fill-rule="evenodd"><path d="M296.862 74.236l90.16 87.417L149.36 312.787zM32.67 174.258l116.69 138.529L.594 222.403l-.595-.23z" fill="#7ab800"/><path d="M296.862 74.236l-147.503 238.55H30.406L.595 222.404l148.764 90.384-71.205-84.04z" fill="#69a618"/><path d="M305.803 110.379c7.878-.835 16.184 2.118 21.548 8.024 5.3 5.593 7.94 13.7 6.625 21.317-1.22 8.776-7.523 16.55-15.672 19.91-12.511 5.425-28.205-1.18-33.38-13.712-3.485-7.888-2.536-17.55 2.515-24.562 4.174-6.073 11.06-10.101 18.364-10.977z" fill="#fff"/><path d="M307.65 122.963c7.044-.543 14.045 5.405 13.763 12.667.637 8.087-7.888 14.744-15.62 12.814-6.209-1.294-10.904-7.586-9.996-13.951.49-6.052 5.854-11.06 11.853-11.53z"/><path d="M387.022 161.653l-102.87 151.134H149.359z" fill="#5b8f22"/></g></svg>