<svg xmlns="http://www.w3.org/2000/svg" width="99.289" height="99.289"><g fill="#231f20"><path d="M63.652 0L49.645 14.008 35.635 0l-5.307 5.308 19.317 19.317L68.961 5.308zM14.911 82.055c.543 2.983 4.076 6.248 7.17 6.612 9.165.931 18.465 1.407 27.563 1.407 9.099 0 18.398-.476 27.636-1.415 3.022-.356 6.552-3.621 7.098-6.604 1.762-12.821 1.762-24.77 0-37.59-.546-2.983-4.076-6.247-7.174-6.615a275.027 275.027 0 00-27.56-1.404c-9.098 0-18.398.476-27.638 1.415-3.019.356-6.552 3.621-7.095 6.604-1.763 12.82-1.763 24.769 0 37.59M49.644 99.29c-9.409 0-19.021-.49-28.568-1.46-7.258-.856-14.072-7.266-15.261-14.294l-.021-.137c-1.898-13.74-1.898-26.537 0-40.276l.021-.14c1.19-7.027 7.601-13.51 15.432-14.308a279.001 279.001 0 0128.397-1.443c9.407 0 19.019.491 28.568 1.46 7.258.858 14.071 7.266 15.26 14.291l.023.14c1.897 13.739 1.897 26.537 0 40.276l-.023.137c-1.189 7.028-8.002 13.438-15.185 14.286a283.927 283.927 0 01-28.643 1.468"/></g></svg>