<svg xmlns="http://www.w3.org/2000/svg" width="77.294" height="77.294" viewBox="0 0 20.451 20.451"><defs><clipPath clipPathUnits="userSpaceOnUse" id="a"><path d="M0 792h612V0H0z"/></clipPath><clipPath clipPathUnits="userSpaceOnUse" id="b"><path d="M0 0h612v792H0z"/></clipPath><clipPath clipPathUnits="userSpaceOnUse" id="c"><path d="M328 626h216v76H328z"/></clipPath><clipPath clipPathUnits="userSpaceOnUse" id="d"><path d="M328.514 626.4H543.5v74.64H328.514z"/></clipPath></defs><g clip-path="url(#a)" transform="matrix(.35278 0 0 -.35278 -114.43 247.311)"><g clip-path="url(#b)"><g clip-path="url(#c)"><g clip-path="url(#d)"><path d="M348.67 684.93c-.33 5.987 8.5 10.356 15.174 10.272 3.568-.045 6.281-1.308 5.873-3.7-.27-1.582-1.92-3.387-4.157-4.072-.668-.204-.91-.483-.91-1.06 0-.855 2.562-2.51 4.64-2.51 4.751 0 8.908 3.198 8.908 7.81 0 5.478-6.817 9.37-14.327 9.37-11.644 0-23.94-8.118-23.94-16.993 0-13.666 22.214-12.718 22.214-22.646 0-6.795-7.349-12.062-15.186-12.062-6.186 0-10.55 2.304-10.55 6.275 0 2.7 3.326 4.978 5.832 4.978 1.406 0 2.422-.795 2.422-2.064 0-1.603-1.699-1.422-1.699-2.872 0-1.199 1.866-2.473 4.501-2.473 4.504 0 7.006 2.938 7.006 6.321 0 3.75-4.03 7.795-11.029 7.777-6.955-.019-14.03-5.098-14.84-11.05-1.053-7.724 7.58-13.162 17.861-13.162 11.46 0 25.16 6.984 25.388 17.365.32 14.483-22.62 14.285-23.18 24.495" fill="#2f9dff" fill-rule="evenodd"/></g></g></g></g></svg>