<svg xmlns="http://www.w3.org/2000/svg" height="247.002" width="247.002" viewBox="-150.039 -88.376 267.655 163.717"><path d="M-16.542-70.233c3.688-6.022 9.807-12.323 16.396-14.988 11.34-5.16 26.542-2.94 35.795 5.224 8.954 8.112 13.496 19.23 11.353 31.66 2.196-.405 4.413-1.81 6.738-2.61 13.899-3.924 28.599.33 37.51 12.247 6.695 8.507 8.444 21.724 4.426 32-1.994 5.17-5.395 9.818-9.817 13.784l.446.448c12.93.628 25.639 10.67 29.56 22.982 4.254 12.42.513 25.69-8.57 34.773-7.42 7.334-16.96 9.872-27.566 9.658h-192.55c-15.81.34-28.026-6.663-34.603-20.722-5.16-12.068-2.612-27.503 7.024-36.702 6.076-6.354 13.688-8.956 21.896-10.266-9.295-8.624-13.773-20.424-11.161-33.078 1.866-10.254 10.607-20.637 20.648-24.22 8.847-3.517 20.83-2.9 28.932 1.876l.288-.352c-2.441-13.954 3.742-26.543 15.317-34.26 10.32-6.982 26.82-6.802 36.926.62 4.542 2.78 8.283 7.556 11.012 11.926" fill="#fff"/><path d="M37.972-65.02c4.137 8.347 1.707 19.284-2.611 26.778L1.953 36.921l-.29.352-12.075-76.25c-.97-7.322 6.854-10.446 11.459-13.964-.234-1.076-1.418-1.023-2.163-1.524l-11.288-.118-.343-.34c.064-9.467 5.16-18.208 13.794-22.802 9.02-5.212 21.725-3.795 29.549 2.89 3.177 2.833 5.853 6.126 7.376 9.815" fill="#645faa"/><path d="M-23.578-67.632c2.73 5.053 4.308 10.79 3.348 17.14l-13.623 87.306c.074.106-.053.224-.161.276l-3.528-7.024-34.144-76.25c-3.177-9.818-.234-20.083 6.918-27.12 7.206-7.312 19.06-9.295 28.484-5.33 4.989 2.155 9.754 6.12 12.706 11.002" fill="#c9234a"/><path d="M87.392-30.877c4.594 7.834 3.56 19.69-1.547 26.96-3.164 5.105-8.39 7.653-12.813 11L2.284 55.647h-.162l.79-2.323 37.502-84.65c5.618-9.977 16.342-15.03 27.684-13.506 7.77 1.42 15.542 6.47 19.294 13.954" fill="#0089cf"/><path d="M-73.327-31.324l39.026 86.963h-.628l-78.68-54.227c-8.007-6.747-11.29-16.853-8.571-27.065 2.036-7.654 8.389-14.806 15.947-17.643 12.375-4.53 26.317.288 32.906 11.972" fill="#f36f21"/><path d="M107.923 30.513c3.922 8.283 2.377 19.625-3.23 26.67-5.563 6.75-13.005 10.437-21.736 10.202l-83.893.054 70.279-48.896C76.21 14.12 86.646 13.318 94.14 16.9c5.787 2.27 11.235 7.942 13.783 13.613" fill="#0db14b"/><path d="M-140.506 30.513c-3.911 8.283-2.377 19.625 3.24 26.67 5.565 6.75 12.984 10.437 21.726 10.202l83.893.054-70.28-48.896c-6.865-4.424-17.3-5.225-24.784-1.643-5.79 2.27-11.236 7.942-13.795 13.613" fill="#fdb913"/></svg>