<svg xmlns="http://www.w3.org/2000/svg" class="bfy-logo-svg" width="112.8" height="112.8"><path class="backupify-svg" d="M56.95 112.8c11.6-.1 21.6-4.3 30-12.7 8.5-8.6 12.8-18.8 12.8-30.7 0-11.8-4.1-22-12.3-30.6-8.2-8.6-18.1-12.9-29.7-12.9h-.9V13.6l-21.1 21.1 21.1 21.2V42.2c7.2.1 13.4 2.8 18.6 8.1 5.4 5.4 8 11.7 8 19.1 0 7.4-2.7 13.9-8 19.2-5.3 5.3-11.7 8-19.1 8-7.5 0-13.9-2.7-19.2-8-5.3-5.3-7.9-11.7-7.9-19.2V0h-16.2v69.4c0 12 4.2 22.2 12.7 30.7 8.5 8.4 18.7 12.7 30.6 12.7h.6z" fill="#006095"/></svg>