<svg xmlns="http://www.w3.org/2000/svg" version="1.1" id="Layer_1" x="0" y="0" xml:space="preserve" width="96.4" height="96.4"><style type="text/css" id="style1680"></style><g id="g2296" transform="translate(17.3 -1.2)"><path d="M25 26.8V2l25.4 18.7c5.3 3.9 8.9 9.5 10.3 15.9-5.7-6.8-13.4-9.7-18.6-9.8z" id="path1692" fill="#f6b881"/><path id="Shape" d="M41.7 75c-.2 3-2.7 5.3-5.7 5.3H19.8V49.1H36c3 0 5.5 2.3 5.7 5.3zM19.9 32.1V1.2H1v96.4h39.6c5.3 0 10.5-2.1 14.3-5.9 3.8-3.8 5.9-8.9 5.9-14.3V52.3c0-11.1-9-20.1-20.2-20.1H19.9z" fill="#ef7e19"/></g></svg>