<svg xmlns="http://www.w3.org/2000/svg" width="295.064" height="295.064"  xmlns:v="https://vecta.io/nano"><defs><clipPath id="A"><circle cx="-436.721" cy="74.736" r="147.532" fill="#fff" stroke-width="24" stroke-linecap="round" stroke-linejoin="round" stroke-dashoffset="1.8" paint-order="markers fill stroke"/></clipPath></defs><g clip-path="url(#A)" transform="translate(584.253 72.796)"><circle cx="-436.721" cy="74.736" r="147.532" fill="#cc092f" paint-order="markers fill stroke"/><path d="M-436.88-8.04c-7.498-.07-15.079 5.727-16.502 15.368l-21.394 103.596c-1.496 7.243-3.286 14.106-5.686 17.574s-3.79 5.28-13.037 4.49c-4.201-.359-9.267-2.538-14-5.44s-8.124-6.023-13.295-8.804c-11.538-6.205-22.79-8.57-33.318-7.025-8.197 1.202-15.458 4.252-23.1 8.05.507 8.196 3.656 15.622 9.203 22.264 7.4-3.674 12.944-5.918 17.38-6.568 5.345-.784 9.95-.164 18.468 4.416.314.169 5.8 4.256 12.121 8.13s14.492 8.035 24.498 8.89c15.53 1.325 28.403-5.479 34.816-14.747s7.984-19.258 9.454-26.375l13.835-66.996 13.819 66.912c1.47 7.117 3.04 17.11 9.453 26.377s19.287 16.072 34.816 14.746c10.007-.854 18.177-5.016 24.498-8.89s11.807-7.96 12.122-8.13c8.517-4.58 13.123-5.2 18.468-4.415 4.675.685 10.553 3.116 18.569 7.154 4.704-5.782 8.223-12.653 9.28-22.213-8.11-4.092-15.719-7.419-24.366-8.687-10.53-1.545-21.78.818-33.319 7.023-5.17 2.78-8.561 5.906-13.295 8.807s-9.796 5.08-13.998 5.44c-9.247.789-10.64-1.024-13.039-4.491s-4.19-10.331-5.685-17.574L-421.51 7.246c-2.203-10.591-8.755-15.222-15.37-15.285z" fill="#fff" stroke="#fff" stroke-width=".01"/></g></svg>