<svg xmlns="http://www.w3.org/2000/svg" width="521.6" height="521.6"><path d="M273.6 171.9h129.9V210h-43.6v139.3h-42.8V210h-43.5zm-12.8 317.6C134.6 489.5 32.1 387 32.1 260.8c0-126.2 102.5-228.7 228.7-228.7 126.2 0 228.7 102.5 228.7 228.7 0 126.2-102.5 228.7-228.7 228.7m0 32.1c144 0 260.8-116.8 260.8-260.8S404.8 0 260.8 0C116.9 0 0 116.8 0 260.8s116.9 260.8 260.8 260.8M216.7 295c0-11.2-7-18.8-19-18.8H169v37h28.7c12 0 19-7.5 19-18.2m-5.2-71.2c0-9.4-6-15.9-16.2-15.9H169v32.3h26.3c10.2 0 16.2-6.5 16.2-16.4m48.5 73.3c0 33.6-23.7 52.2-57.6 52.2h-75.6V171.9h70.6c34.2 0 57.4 17.5 57.4 49.5 0 14.6-6.5 27.6-17 35.5 12 7.1 22.2 20.6 22.2 40.2" fill="#5514b4"/></svg>