<svg xmlns="http://www.w3.org/2000/svg" xmlns:xlink="http://www.w3.org/1999/xlink" width="40.971" height="40.971"><g transform="translate(2.475)"><defs><path id="a" d="M15.876 11.687l8.322 1.439c-6.242-1.08-6.626-6.274-15.024-10.843-.917 3.029.982 8.492 6.702 9.404"/></defs><clipPath id="b"><use xlink:href="#a" overflow="visible" width="100%" height="100%"/></clipPath><linearGradient id="c" gradientUnits="userSpaceOnUse" x1="-70.017" y1="369.009" x2="-69.336" y2="369.009" gradientTransform="matrix(22.3552 0 0 -15.9007 1574.2 5875.193)"><stop offset="0" stop-color="#ffa600"/><stop offset=".34" stop-color="#ff9f00"/><stop offset=".69" stop-color="#ff7300"/><stop offset="1" stop-color="#f52900"/></linearGradient><path clip-path="url(#b)" fill="url(#c)" d="M8.257 2.283h15.941v10.843H8.257z"/></g><g transform="translate(2.475)"><defs><path id="d" d="M9.174 2.283c8.398 4.568 8.782 9.763 15.024 10.843 3.133.542.304 5.888-3.038 5.324 6.004 2.041 11.482-3.399 8.349-5.105z"/></defs><clipPath id="e"><use xlink:href="#d" overflow="visible" width="100%" height="100%"/></clipPath><linearGradient id="f" gradientUnits="userSpaceOnUse" x1="-69.774" y1="364.3" x2="-69.092" y2="364.3" gradientTransform="matrix(31.1579 0 0 -24.3694 2183.182 8889.158)"><stop offset="0" stop-color="#ffa600"/><stop offset=".34" stop-color="#ff9f00"/><stop offset=".69" stop-color="#ff7300"/><stop offset="1" stop-color="#f52900"/></linearGradient><path clip-path="url(#e)" fill="url(#f)" d="M9.174 2.283h23.469v18.208H9.174z"/></g><g transform="translate(2.475)"><defs><path id="g" d="M21.166 18.45h-.005a3.28 3.28 0 01-1.192-.463c-2.512-1.563-5.04-2.069-7.328-1.822 4.775.584 9.316 6.838 8.752 11.467a5.698 5.698 0 01-1.663 4.399l-2.755 2.755c2.125 1.399 5.353-.059 6.339-2.088l5.557-11.432c1.364-.323 10.068-2.579 6.141-4.928L29.52 13.35c3.108 1.713-2.361 7.135-8.354 5.1"/></defs><clipPath id="h"><use xlink:href="#g" overflow="visible" width="100%" height="100%"/></clipPath><linearGradient id="i" gradientUnits="userSpaceOnUse" x1="-69.747" y1="362.249" x2="-69.064" y2="362.249" gradientTransform="matrix(34.2867 0 0 -32.2475 2404.017 11706.409)"><stop offset="0" stop-color="#ffa600"/><stop offset=".34" stop-color="#ff9f00"/><stop offset="1" stop-color="#ff6200"/></linearGradient><path clip-path="url(#h)" fill="url(#i)" d="M12.641 13.35h26.298v22.835H12.641z"/></g><g transform="translate(2.475)"><defs><path id="j" d="M12.636 16.165c-7.473.813-12.369 9.682-5.714 16.093l5.575 5.575c-3.657-3.657-4.006-9.005-1.749-12.723.242-.415.542-.806.898-1.162a5.712 5.712 0 018.083 0 5.69 5.69 0 011.663 3.683c.564-4.628-3.975-10.878-8.747-11.466z"/></defs><clipPath id="k"><use xlink:href="#j" overflow="visible" width="100%" height="100%"/></clipPath><linearGradient id="l" gradientUnits="userSpaceOnUse" x1="-69.794" y1="362.397" x2="-69.111" y2="362.397" gradientTransform="matrix(25.8911 0 0 -31.7769 1810.799 11542.856)"><stop offset="0" stop-color="#ffa600"/><stop offset=".34" stop-color="#ff9f00"/><stop offset=".69" stop-color="#ff7300"/><stop offset="1" stop-color="#f52900"/></linearGradient><path clip-path="url(#k)" fill="url(#l)" d="M.267 16.165h21.69v21.668H.267z"/></g><g transform="translate(2.475)"><defs><path id="m" d="M12.497 37.833l3.139 3.138c1.048-.833 1.675-3.275.05-4.899l-4.041-4.042a5.717 5.717 0 01-.898-6.92c-2.256 3.718-1.907 9.066 1.75 12.723"/></defs><clipPath id="n"><use xlink:href="#m" overflow="visible" width="100%" height="100%"/></clipPath><linearGradient id="o" gradientUnits="userSpaceOnUse" x1="-53.277" y1="341.073" x2="-52.595" y2="341.073" gradientTransform="matrix(-8.0581 -7.2523 -7.5379 8.3754 2157.375 -3207.432)"><stop offset="0" stop-color="#ffa600"/><stop offset=".34" stop-color="#ff9f00"/><stop offset=".69" stop-color="#ff7300"/><stop offset="1" stop-color="#f52900"/></linearGradient><path clip-path="url(#n)" fill="url(#o)" d="M13.364 45.358L.604 33.874l11.834-13.149 12.76 11.484z"/></g><g transform="translate(2.475)"><defs><path id="p" d="M20.055 6.421l9.354 5.089L20.741 0c-1.186 1.351-1.761 4.03-.686 6.421"/></defs><clipPath id="q"><use xlink:href="#p" overflow="visible" width="100%" height="100%"/></clipPath><linearGradient id="r" gradientUnits="userSpaceOnUse" x1="-70.764" y1="368.163" x2="-70.082" y2="368.163" gradientTransform="matrix(14.5536 0 0 -16.8792 1049.358 6220.035)"><stop offset="0" stop-color="#ffa600"/><stop offset=".34" stop-color="#ff9f00"/><stop offset="1" stop-color="#ff6200"/></linearGradient><path clip-path="url(#q)" fill="url(#r)" d="M18.98 0h10.429v11.51H18.98z"/></g><g transform="translate(2.475)"><defs><path id="s" d="M13.559 27.989a2.13 2.13 0 104.258 0 2.13 2.13 0 00-4.258 0"/></defs><clipPath id="t"><use xlink:href="#s" overflow="visible" width="100%" height="100%"/></clipPath><linearGradient id="u" gradientUnits="userSpaceOnUse" x1="-72.509" y1="391.991" x2="-71.827" y2="391.991" gradientTransform="matrix(6.2442 0 0 -6.2442 466.316 2475.657)"><stop offset="0" stop-color="#ffa600"/><stop offset=".34" stop-color="#ff9f00"/><stop offset="1" stop-color="#ff6200"/></linearGradient><path clip-path="url(#t)" fill="url(#u)" d="M13.559 25.86h4.258v4.258h-4.258z"/></g><g transform="translate(2.475)"><defs><path id="v" d="M0 17.698a2.129 2.129 0 104.259 0 2.129 2.129 0 00-4.259 0"/></defs><clipPath id="w"><use xlink:href="#v" overflow="visible" width="100%" height="100%"/></clipPath><linearGradient id="x" gradientUnits="userSpaceOnUse" x1="-71.503" y1="391.159" x2="-70.821" y2="391.159" gradientTransform="matrix(6.2439 0 0 -6.2445 446.456 2460.285)"><stop offset="0" stop-color="#ffa600"/><stop offset=".34" stop-color="#ff9f00"/><stop offset="1" stop-color="#ff6200"/></linearGradient><path clip-path="url(#w)" fill="url(#x)" d="M0 15.569h4.258v4.258H0z"/></g></svg>