<svg xmlns="http://www.w3.org/2000/svg" width="80.397" height="80.397" class="d-inline-block" preserveAspectRatio="xMaxYMax meet"><defs><path id="a" d="M14.984 27.17V.096H.015V27.17z"/></defs><g fill="#7dad03" fill-rule="evenodd"><path d="M18.634 38.26c6.485-11.674 18.935-19.578 33.236-19.578 10.72 0 20.396 4.447 27.304 11.587-3.362-13.232-13.29-23.836-26.11-28.16-17.217 4.622-30.636 18.614-34.43 36.15"/><path d="M28.289 78.598a40.186 40.186 0 0011.925 1.799c21.776 0 39.495-17.318 40.167-38.932-5.451-10.173-16.185-17.11-28.511-17.11-17.825 0-32.327 14.501-32.327 32.327 0 3.297.499 6.48 1.421 9.48m0 0a32.331 32.331 0 007.095 12.357l.228.076"/><path d="M42.314.054a40.579 40.579 0 00-2.1-.054C18.013-.001.016 17.998.016 40.198c0 13.92 7.077 26.186 17.829 33.401.157.107.32.204.48.308l-.012-.022a53.37 53.37 0 01-2.672-5.72 53.455 53.455 0 01-3.763-19.763c0-21.305 12.431-39.706 30.436-48.348"/></g></svg>