<svg xmlns="http://www.w3.org/2000/svg" aria-labelledby="navbar-rebel-com-logo" height="689.535" width="689.535" class="sc-gKsewC gnwqMi"><path d="M591.061 689.534l-34.027-20.468c-8.264-4.943-15.946-9.565-23.628-14.278l-134.324-82.722a486322.041 486322.041 0 00-185.422-114.14c-37.516-23.084-66.43-54.287-86.012-92.73-4.178-8.148-21.532-48.671-25.41-67.31C79.472 187.993 130.432 81.1 231.74 27.63 327.654-22.916 447.831-2.7 524.002 76.724c44.464 46.49 67.296 100.435 67.87 160.309 1.018 99.31.82 200.25.643 297.87-.069 41.105-.153 82.178-.153 123.268a54.442 54.442 0 01-.115 2.954c-.069.979-.145 2.242-.214 4.124l-.972 24.286z" fill="#fff"/><path d="M240.127 55.819c-86.379 48.19-129.435 140.958-109.709 236.236 2.915 14.07 18.563 51.603 22.848 60.103 17.14 33.637 42.551 60.945 75.476 81.23 61.833 38.044 123.612 76.11 185.452 114.17l134.317 82.722a2590.22 2590.22 0 0015.081 9.15c.015-34.684.1-69.63.153-104.597.168-97.512.352-198.4-.635-297.51-.505-52.368-20.644-99.701-59.874-140.721C435.917 26.398 329.774 8.478 245.162 53.04a320.54 320.54 0 00-5.035 2.778z"/><path d="M484.252 114.759C424.738 52.68 331.847 37.156 257.13 76.53c-78.184 41.258-118.478 124.706-100.795 210.167 2.77 13.398 16.26 45.412 19.894 52.574 15.303 29.987 37.8 54.028 66.661 71.795 88.001 54.166 175.957 108.339 263.95 162.49 9.511 5.884 19.114 11.554 30.285 18.272.115-2.992.214-4.162.253-5.356-.023-115.853.758-231.653-.428-347.483-.413-47.846-19.512-89.547-52.697-124.232zm-59.1 252.083l-22.29-16.59 2.426 27.7c-60.823 27.699-132.993 7.82-171.037-46.843l17.591-23.66-29.627 2.603c-28.44-61.282-8.325-134.271 47.211-172.376l25.212 18.777-2.732-31.318c61.55-27.278 134.263-6.137 171.526 50.202l-17.752 23.88 29.344-2.562c26.574 61.09 5.647 132.962-49.873 170.187z" fill="#fff"/><path d="M299.817 290.395l119.878-13.161c1.936-.191 3.59-1.546 4.078-3.46a4.582 4.582 0 00-1.844-4.965l-100.099-67.06a4.654 4.654 0 00-5.448.085l-1.01 1.064c-.834 1.178-1.064 2.732-.62 4.155l10.835 31.808-42.382-10.49c-5.21-1.285-10.452 1.882-11.76 7.078l-.384 1.584c-1.293 5.21 1.89 10.467 7.108 11.76l41.686 10.323-.046.222-23.674 23.108a4.695 4.695 0 00-.956 5.295c.82 1.798 2.67 2.846 4.637 2.655z" fill="#f79621"/></svg>