<svg xmlns="http://www.w3.org/2000/svg" width="345.987" height="345.987"><g fill="none" fill-rule="evenodd"><path d="M295.275 122.97c-8.583 13.197-19.626 32.023-31.802 49.262-3.346 4.739-6.783 9.358-10.268 13.708-19.896 24.795-19.748 26.558-46.724 26.766-32.42.246-22.333-19.835-21.139-36.617.796-11.22 4.49-22.465 5.623-30.371 1.206-8.394 4.247-18.99 18.906-17.88 4.116.31 16.606 4.93 14.98 12.428-3.21 14.835-6.178 42.217-6.501 42.717 0 0 33.037-51.35 47.624-65.867 6.959-6.927 44.887-18.121 29.301 5.854zM150.99 177.162c20.987-1.597 26.914-8.29 26.914-27.74 0-16.9-11.534-25.027-34.923-25.027-14.418 0-25.473 3.506-33.321 11.954-10.573 11.32-13.777 32.522-13.777 46.232 0 20.729 13.297 30.29 39.409 30.29 14.096 0 23.068-1.593 26.913-4.3 3.203-2.232 6.086-6.856 6.086-16.104 0-5.741-4.323-6.699-7.208-6.059-3.844.796-10.572 1.913-19.063 1.913-9.933 0-13.297-1.595-13.297-5.26 0-1.596.16-2.552.64-3.192.644-.795 1.762-1.272 3.846-1.429zm-9.29-31.407c4.645 0 6.888 1.914 6.888 6.218 0 5.738-1.923 9.246-7.37 9.246h-6.407c-2.242 0-3.526-.635-3.526-2.39 0-3.188.96-6.696 2.405-8.928 1.76-2.71 4.164-4.146 8.01-4.146zM38.285 177.96c.485-2.549 1.125-3.506 3.687-3.506 2.884 0 3.527.957 5.126 7.01l6.727 25.67c.645 2.866 3.69 4.784 12.013 4.784 6.41 0 22.11-1.439 22.11-11.32 0-1.437-.48-3.03-.798-4.307l-9.934-26.622c-.799-2.072-1.284-4.145-1.284-5.9 0-2.71 1.603-4.463 4.966-6.854 9.934-7.173 13.46-15.782 13.46-26.145 0-21.68-14.578-27.9-34.282-27.9H40.852c-19.383 0-25.313 4.465-26.436 12.115L.32 204.104c-.16.956-.32 1.914-.32 2.552 0 4.46 6.889 5.262 15.7 5.262 9.294 0 17.3-.958 18.104-6.059zm6.888-46.714c.647-4.143 1.125-5.26 7.693-5.26 4.648 0 6.085 3.189 6.085 8.132 0 13.391-5.605 18.812-12.972 18.812-2.886 0-3.686-.957-3.686-3.03 0-.636.161-1.435.322-2.391z" fill="#da372c"/><path d="M137.016 247.87c-5.338 0-10.628-.072-15.867-.213 97.261-6.404 170.96-36.934 170.96-73.637 0-7.37-2.973-14.491-8.509-21.217 5.91-9.246 11.495-18.29 16.643-26.56 28.619 12.812 45.744 29.063 45.744 46.75 0 41.356-93.56 74.878-208.97 74.878M261.36 112.812c-34.747-9.232-77.763-14.696-124.345-14.696a579.62 579.62 0 00-38.01 1.24c61.197 1.646 115.035 12.74 150.211 29.217 4.254-5.768 8.38-11.156 12.144-15.76" fill="#c1cdc6"/></g></svg>