<svg xmlns="http://www.w3.org/2000/svg" class="site__logo_icon" width="41.4" height="41.4"><path d="M27.22 14.4c-1.328 0-2.408 1.06-2.408 2.364 0 1.855.7 3.55 1.854 4.852a7.563 7.563 0 001.65 1.393 8.625 8.625 0 001.27-6.683c-.01-.05-.023-.1-.035-.15a2.402 2.402 0 00-2.33-1.775zM12.364 21.23c.238.63.548 1.227.92 1.78a7.6 7.6 0 001.648-1.393 7.282 7.282 0 001.856-4.852c0-1.303-1.08-2.363-2.41-2.363-1.12 0-2.062.756-2.33 1.774-.01.05-.024.1-.035.15-.13.6-.2 1.22-.2 1.856 0 1.07.195 2.098.553 3.048zm26.74-1.156L41.4 21.2c-1.66 3.25-5.085 5.484-9.044 5.484-1.164 0-2.28-.195-3.322-.55a11.634 11.634 0 01-8.235 3.385c-3.225 0-6.14-1.298-8.236-3.387-1.04.356-2.16.55-3.323.55-4.12 0-7.665-2.42-9.24-5.89l2.35-1.025c1.176 2.587 3.82 4.396 6.89 4.396.56 0 1.107-.062 1.632-.176a11.126 11.126 0 01-1.63-5.808 11.233 11.233 0 01.327-2.681c.567-2.084 2.504-3.618 4.807-3.618.046 0 .09.002.136.003.14.004.28.013.418.028 2.49.27 4.424 2.34 4.424 4.853 0 3.378-1.722 6.36-4.35 8.15A9.046 9.046 0 0020.799 27a9.05 9.05 0 005.794-2.086c-2.628-1.79-4.35-4.773-4.35-8.15 0-2.514 1.934-4.584 4.422-4.854.138-.014.277-.023.418-.027.046 0 .09-.003.137-.003 2.304 0 4.24 1.535 4.808 3.62a11.174 11.174 0 01.327 2.68c0 2.123-.595 4.11-1.63 5.808a7.68 7.68 0 001.63.176 7.567 7.567 0 006.747-4.092z" fill="#ed2761"/></svg>