<svg xmlns="http://www.w3.org/2000/svg" width="275.487" height="275.487"><path d="M220.59 183.148c-3.875-2.257-3.937-4.184-.736-22.66 3.344-19.302 9.354-53.462 10.955-62.266 3.832-21.074 10.504-59.178 11.556-66 1.631-10.57 3.783-11.95 18.69-11.978 11.402-.022 11.771.046 13.357 2.467 1.52 2.318 1.487 3.296-.474 14.25a8946.371 8946.371 0 00-5.59 31.76c-1.918 11-4.14 23.6-4.939 28-.799 4.4-3.096 17.45-5.105 29-6.806 39.129-9.5 52.823-10.667 54.23-2.647 3.19-6.73 4.27-16.01 4.24-5.115-.017-10.082-.486-11.037-1.043z" fill="#00c8c8"/><path d="M166.056 182.991c-2.837-1.367-3.646-4.442-2.772-10.532.608-4.23 5.912-34.863 8.525-49.237 1.032-5.673 2.533-14.103 6.056-34 1.12-6.325 2.533-12.76 3.14-14.298 1.756-4.45 5.443-5.702 16.773-5.702 11.223 0 14.05 1.358 14.048 6.75 0 2.705-3.878 25.627-10.021 59.25-.553 3.025-2.36 13.375-4.015 23-1.656 9.625-3.44 18.513-3.966 19.752-1.896 4.468-6.646 6.246-16.497 6.176-4.95-.035-10.022-.557-11.271-1.159z" fill="#00b4b4"/><path d="M112.056 182.991c-4.16-2.005-3.978-5.113 2.312-39.27.81-4.4 1.758-10.024 2.107-12.5 1.442-10.246 5.309-13 18.255-13 15.213 0 15.995 1.29 12.552 20.691a5508.227 5508.227 0 00-4.509 25.81c-2.122 12.375-3.73 16.018-8.042 18.235-2.978 1.53-19.519 1.556-22.675.034zM64.327 183.276c-3.661-1.499-5.635-4.81-6.982-11.715-1.722-8.827-7.331-40.546-13.146-74.34-.899-5.224-2.035-11.157-2.524-13.184l-.89-3.684-16.953-.316C3.435 79.657 3.308 79.59 1.245 68.06c-1.761-9.845-1.73-10.525.582-12.837 1.903-1.903 3.334-2 29.424-2h27.423l3.043 2.56c1.788 1.504 3.262 3.875 3.576 5.75 1.898 11.342 8.791 50.53 11.555 65.69 9.635 52.85 9.69 53.478 5.022 55.977-2.25 1.204-14.656 1.258-17.543.077zM221.327 253.563c-5.303-2.791-8.523-6.615-10.08-11.968-2.36-8.123.701-16.44 7.777-21.122 3.403-2.253 5.272-2.751 10.303-2.751 5.032 0 6.9.498 10.304 2.75 9.627 6.372 11.298 20.737 3.383 29.081-5.233 5.517-15.29 7.376-21.687 4.01zM68.631 253.181c-12.853-6.788-13.417-25.454-1.003-33.153 2.808-1.742 5.184-2.296 9.863-2.3 5.244-.006 6.798.441 10.411 2.994 10.21 7.211 11.274 21.162 2.265 29.686-1.562 1.477-4.106 3.165-5.655 3.75-4.36 1.647-11.776 1.19-15.881-.977z" fill="#00a0a0"/></svg>