<svg xmlns="http://www.w3.org/2000/svg" width="2475.9" height="2475.9"><path d="M869.7 2409c-87.9-7.4-167.5-33.6-249.8-82.4-13.9-8.3-14.7-9-14.2-11.4l8.5-45.1 421.7-1976.5-558.3-2.5c-16.3-12.6-31.5-31.7-48.3-61-29.8-52-51-113.8-51.4-149.5-.2-21 5.7-33.7 18.3-39.4 3.2-1.5 25.7-1.7 251.5-2.3 230.2-.6 301.4-1.2 455.5-3.8a22190 22190 0 00726.5-23.6c72.4-3.6 185.4-10 195.4-11l5.5-.5 9 9.3c37.3 38.1 55.4 98 58.2 192.3 1.4 49-4 82.7-15.6 95.8-6.1 7 4.2 6.7-144 4.6l-534.6-5.3-401.4 1950.9c-17.8 118.6-19.2 125.4-31.4 145l-4.4 7-9.3 3.2c-17.8 6.2-20 6.5-49.4 6.8-14.8.1-32-.1-38-.6z" fill="#1f2b4a"/><path d="M1635.2 2475c-73.9-5.2-132-76.6-130.9-149.2-8.3-118 52.2-233.6 142.1-307.4 69.6-52.6 175.9-61.6 245.8-5 60.8 49.7 78.8 137.5 57.8 211-23.5 86.9-85.9 159-159 209.4-45.7 29.6-100.9 47.7-155.8 41.2z" fill="#c40866"/></svg>