<svg xmlns="http://www.w3.org/2000/svg" width="24.885" height="24.885"><path d="M20.52 12.712c0-5.547-4.441-9.9-9.945-10.132-.118 0-.275.116-.118.27.393.809 1.337 2.62 2.948 3.814 2.163 1.58 3.381 3.544 3.381 5.932 0 3.044-2.437 6.472-6.447 6.472-4.05 0-6.447-3.428-6.447-6.472 0-2.388 1.337-4.353 3.38-5.932 1.613-1.31 2.674-2.997 2.95-3.806.117-.116 0-.27-.119-.27C4.443 2.704 0 7.049 0 12.558c0 4.469 3.892 9.746 10.221 9.746 2.83 0 5.229-.809 6.998-2.234l2.005 1.849h5.66l-5.307-4.892c.55-1.156.944-2.62.944-4.315z" fill="#018dc6" fill-rule="evenodd"/></svg>