<svg xmlns="http://www.w3.org/2000/svg" width="208.274" height="208.274"><path d="M85.575 206.838c-21.9-3.96-41.408-14.68-57.093-31.378-15.908-16.934-25.375-37.904-27.55-61.024-1.881-19.984 1.563-38.744 10.381-56.55C34.02 12.032 85.312-10.189 134.57 4.488c25.461 7.586 48.053 26.27 60.849 50.323 33.427 62.837-3.805 139.941-73.465 152.141-10.305 1.805-26.038 1.755-36.38-.115z" fill="#2364c6"/><path d="M96.791 142.943c1.51-.78 3.513-2.59 4.45-4.019l1.703-2.599 3.506 2.167c8.344 5.157 18.848 4.399 25.055-1.809 3.53-3.53 3.61-3.554 6.203-1.86 14.76 9.646 34.123 9.433 41.162-.452 1.212-1.702 2.825-5.159 3.584-7.682 2.765-9.187 1.149-16.777-4.92-23.104-3.998-4.168-7.563-6.083-15.2-8.169-4.252-1.16-5.88-2.054-5.59-3.067 1.087-3.797.421-8.908-1.432-10.986-2.645-2.967-7.948-5.113-10.84-4.387-2.148.539-2.399.202-2.975-4C138.951 54.4 117.19 43.73 99.335 52.302c-6.362 3.054-11.153 7.552-16.466 15.456-2.717 4.043-3.604 4.718-5.393 4.11-1.178-.401-4.616-.924-7.641-1.162-4.563-.359-6.093-.033-8.977 1.914-4.648 3.139-7.647 7.802-8.447 13.138l-.658 4.391-5.934.538c-3.555.323-7.353 1.416-9.473 2.726-4.592 2.838-9.182 9.577-10.486 15.394-2.453 10.947 4.737 24.701 15.193 29.062 4.077 1.7 17.344 2.113 19.714.613 1.1-.695 1.449-3.545 1.5-12.234.062-10.31.32-11.841 2.869-17.032 3.233-6.583 6.966-10.064 14.699-13.706 4.663-2.196 6.868-2.587 14.5-2.567 7.622.02 9.88.432 14.75 2.695 6.959 3.233 7.729 5.348 1.5 4.12-8.002-1.578-18.804-.856-24.538 1.64-6.22 2.706-12.342 9.174-14.036 14.829-2.74 9.144-.748 19.656 4.651 24.538 4.99 4.513 13.775 5.463 20.13 2.177z" fill="#fff"/></svg>