<svg xmlns="http://www.w3.org/2000/svg" width="74.4" height="74.4" viewBox="0 0 19.685 19.685"><defs><linearGradient id="a" gradientUnits="userSpaceOnUse" x1="200.2" y1="607.068" x2="239.24" y2="607.068" gradientTransform="translate(0 -585.84)"><stop offset="0" stop-color="#71802e"/><stop offset=".009" stop-color="#74832e"/><stop offset=".14" stop-color="#99a82c"/><stop offset=".261" stop-color="#b3c42b"/><stop offset=".368" stop-color="#c3d42a"/><stop offset=".45" stop-color="#c9da2a"/><stop offset="1" stop-color="#e1e319"/></linearGradient><linearGradient id="b" gradientUnits="userSpaceOnUse" x1="176.03" y1="602.662" x2="200.33" y2="602.662" gradientTransform="matrix(.26458 0 0 .26458 -79.904 -86.98)"><stop offset="0" stop-color="#71802e"/><stop offset=".009" stop-color="#74832e"/><stop offset=".14" stop-color="#99a82c"/><stop offset=".261" stop-color="#b3c42b"/><stop offset=".368" stop-color="#c3d42a"/><stop offset=".45" stop-color="#c9da2a"/><stop offset="1" stop-color="#e1e319"/></linearGradient><linearGradient id="c" gradientUnits="userSpaceOnUse" x1="164.8" y1="627.462" x2="209.4" y2="627.462" gradientTransform="matrix(.26458 0 0 .26458 -79.904 -86.98)"><stop offset="0" stop-color="#71802e"/><stop offset=".009" stop-color="#74832e"/><stop offset=".14" stop-color="#99a82c"/><stop offset=".261" stop-color="#b3c42b"/><stop offset=".368" stop-color="#c3d42a"/><stop offset=".45" stop-color="#c9da2a"/><stop offset="1" stop-color="#e1e319"/></linearGradient></defs><path class="st0" d="M200.2 20.6s2.3 5 12.4.6c10.1-4.5 26.6-11.9 26.6-11.9L233.6 24s-13 5.8-16.5 7.3c-10.1 4.5-12.4-.6-12.4-.6z" fill="url(#a)" transform="matrix(.26458 0 0 .26458 -43.603 1.515)"/><path class="st1" d="M-26.908 73.527s-.609-1.322-3.281-.158l-3.148 1.402 1.481-3.89.45-.211c2.672-1.19 3.28.159 3.28.159z" fill="url(#b)" transform="translate(36.3 -66.509)"/><path class="st2" d="M-24.5 78.899s-.609-1.323-3.281-.16l-8.52 3.784 1.482-3.89 5.82-2.592c2.673-1.19 3.282.159 3.282.159z" fill="url(#c)" transform="translate(36.3 -66.509)"/></svg>