<svg xmlns="http://www.w3.org/2000/svg" width="35.891" height="35.891"><path d="M17.949 20.762c1.768 0 4.932 3.18 5.774 4.022.888.888 1.331 2.22.887 3.552-.625 1.877-5.773 6.662-6.661 7.55-.888-.888-6.037-5.673-6.663-7.55-.443-1.332 0-2.664.888-3.552l.19-.19c1.054-1.048 3.93-3.832 5.585-3.832zm10.392-9.478c1.877.625 6.662 5.774 7.55 6.662-.888.888-5.673 6.036-7.55 6.661-1.332.444-2.664 0-3.552-.887-.841-.842-4.022-4.006-4.022-5.774 0-1.77 3.18-4.933 4.022-5.775.888-.888 2.22-1.331 3.552-.887zm-17.239.887c.841.842 4.021 4.006 4.021 5.775 0 1.768-3.18 4.932-4.02 5.774-.889.888-2.22 1.331-3.552.887C5.673 23.982.888 18.834 0 17.946c.888-.888 5.673-6.037 7.55-6.662 1.332-.444 2.664 0 3.552.887zM17.95.005c.888.888 6.036 5.673 6.661 7.55.444 1.332 0 2.664-.887 3.552-.842.841-4.006 4.022-5.774 4.022-1.77 0-4.934-3.18-5.775-4.022-.888-.888-1.331-2.22-.888-3.551.626-1.878 5.775-6.663 6.663-7.551z" fill="#ef4126" fill-rule="evenodd"/></svg>