<svg xmlns="http://www.w3.org/2000/svg" width="23.705" height="23.705"><defs><radialGradient cx="11.391" cy="12.354" fx="11.391" fy="12.354" r="12.704" gradientTransform="scale(1.04053 .96105)" id="a" gradientUnits="userSpaceOnUse"><stop stop-color="#FFB900" offset="0%"/><stop stop-color="#FA5C86" offset="74.709%"/><stop stop-color="#F95353" offset="100%"/></radialGradient></defs><path d="M17.008 5.151a5.154 5.154 0 01-5.155 5.152 5.154 5.154 0 01-5.156-5.152A5.154 5.154 0 0111.853 0a5.154 5.154 0 015.155 5.151zm-11.853 6.44A5.153 5.153 0 000 16.743a5.154 5.154 0 005.155 5.151 5.154 5.154 0 005.156-5.151 5.153 5.153 0 00-5.156-5.152zm13.395 0a5.154 5.154 0 00-5.156 5.152 5.154 5.154 0 005.156 5.151 5.154 5.154 0 005.155-5.151 5.154 5.154 0 00-5.155-5.152z" fill="url(#a)" transform="translate(0 .905)" fill-rule="evenodd"/></svg>