<svg xmlns="http://www.w3.org/2000/svg" version="1.1" id="svg24706" width="189.84" height="189.84"><defs id="defs24682"><style id="style24680"></style></defs><g id="g25298" transform="translate(36.027)"><path d="M58.49 0a16.6 16.6 0 00-13.77 25.86l7.09-7.08a6.88 6.88 0 01-.35-2.19 7 7 0 117 7 6.87 6.87 0 01-2.18-.35l-7.08 7.08A16.59 16.59 0 1058.49 0z" id="path24684" fill="#34a853"/><path d="M51.89 48.35a25.79 25.79 0 00-5.17-15.54L37.52 42A13.19 13.19 0 0135 57.92l5 12.22a25.93 25.93 0 0011.89-21.79z" id="path24686" fill="#fbbc04"/><path d="M26.18 61.54h-.24a13.2 13.2 0 117.25-24.23l9.11-9.11a25.94 25.94 0 10-16.36 46.09 26.53 26.53 0 005.24-.52z" id="path24688" fill="#ea4335"/><path d="M58.84 72.11a58.87 58.87 0 00-17 2.49l7.29 17.81a40.19 40.19 0 019.7-1.18 39.71 39.71 0 11-28.09 11.63 40.12 40.12 0 019.47-7L33 78.1a58.87 58.87 0 1025.89-6z" id="path24690" fill="#4285f4"/></g></svg>