<svg xmlns="http://www.w3.org/2000/svg" height="29.659" viewBox="0 0 29.659 46.006" width="29.659"><g transform="translate(-106.621)"><path d="M121.45 31.384l-11.763 13.755a2.1 2.1 0 01-1.729.866 2.014 2.014 0 01-2.059-1.994 2.247 2.247 0 01.6-1.529l12.293-13.889-11.83-13.557a2.36 2.36 0 01-.731-1.6 2.032 2.032 0 012.127-1.994 2.085 2.085 0 011.661.866l11.43 13.423 11.43-13.423a2.085 2.085 0 011.661-.866 2.032 2.032 0 012.127 1.994 2.359 2.359 0 01-.731 1.6l-11.828 13.557 12.294 13.889a2.245 2.245 0 01.6 1.529 2.014 2.014 0 01-2.059 1.994 2.1 2.1 0 01-1.729-.866z"/><circle cx="121.449" cy="3.394" r="3.394"/></g></svg>