<svg xmlns="http://www.w3.org/2000/svg" version="1.1" id="Layer_1" x="0" y="0" xml:space="preserve" width="20.875" height="20.875"><style type="text/css" id="style892"></style><g id="g922" transform="translate(.037 -.663)"><path d="M9.7 5.6c0-2-1.2-3.7-3-4.5-1.8-.8-3.9-.4-5.3 1S-.4 5.6.3 7.4c.7 1.8 2.5 3 4.5 3h4.9zm1.4 0c0-2 1.2-3.7 3-4.5 1.8-.8 3.9-.4 5.3 1s1.8 3.5 1.1 5.3c-.7 1.8-2.5 3-4.5 3h-4.9zm0 11c0 2 1.2 3.7 3 4.5 1.8.8 3.9.4 5.3-1s1.8-3.5 1.1-5.3c-.7-1.8-2.5-3-4.5-3h-4.9zm-6.3 3.5c1.9 0 3.5-1.5 3.5-3.5v-3.5H4.8c-1.9 0-3.5 1.5-3.5 3.5s1.6 3.5 3.5 3.5zm4.9-3.5c0 2-1.2 3.7-3 4.5-1.8.8-3.9.4-5.3-1S-.4 16.6.3 14.8c.7-1.8 2.5-3 4.5-3h4.9z" id="path904" fill="#280"/></g></svg>