<svg xmlns="http://www.w3.org/2000/svg" width="70" height="70"><circle fill="#fff" cx="35.418" cy="34.998" r="34"/><path fill="#046" d="M35 70C15.701 70 0 54.3 0 35.002 0 15.701 15.701 0 35 0c19.3 0 35 15.701 35 35.002C70 54.3 54.3 70 35 70zm0-66.45c-17.341 0-31.45 14.109-31.45 31.452 0 17.338 14.109 31.45 31.45 31.45 17.342 0 31.45-14.112 31.45-31.45C66.451 17.659 52.342 3.55 35 3.55z"/><path fill="#28aed4" d="M34.98 14.799c1.649 0 3.614.241 5.454.59V9.735c0-.816-3.329-1.729-5.508-1.729-2.18 0-5.393.911-5.393 1.729v5.668c1.818-.357 3.776-.604 5.447-.604z" opacity=".7"/><path fill="none" d="M36.06 38.134l.328-6.007-1.38-6.854-1.504 6.854.279 5.99 1.101 8.894c.064.017.129.032.19.044z"/><path fill="#b93d8e" d="M9.511 46.249s.001-.002.003-.002c-.014-.035-.03-.067-.047-.104.017.037.029.07.044.106z"/><path fill="#046" d="M46.622 26.002v-5.909c0-.815-7.036-2.692-11.643-2.692-4.604 0-11.398 1.877-11.398 2.692v5.837c5.393-3.851 11.304-5.572 11.304-5.572.018-.004 6.301 1.729 11.737 5.644z"/><path fill="#3b4655" d="M49.459 37.645c2.304-.441-1.744.334 0 0z"/><path fill="#28aed4" d="M17.038 48.273c2.39.252 11.37 4.084 20.045-.896l-2.137-.273c-2.8-.625-8.018-4.479-8.301-4.74-.023-.075-8.479-8.645-18.38.386a28.058 28.058 0 001.193 3.375c2.341-.955 5.051 1.891 7.58 2.148z" opacity=".65"/><path fill="#046" d="M49.459 37.645c-1.744.336-3.787 2.84-6.431 5.371 1.042-3.729 2.937-7.914 6.365-11.521a35.047 35.047 0 00-2.801-2.295v-.017c-3.444-2.543-7.434-4.726-11.567-5.926l-.004.003c-1.71.445-3.393 1.242-4.979 1.998-3.416 1.627-6.629 3.683-9.434 6.229-.002 0-.003.004-.006.007 3.057 3.095 4.874 6.989 5.966 10.628.021.081.052.164.074.239.284.263.577.526.871.776 2.148 1.829 4.579 3.334 7.377 3.961l-.009-.09-1.101-8.894-.279-5.99 1.504-6.854 1.38 6.854-.328 6.007-.984 8.92-.008.077 2.016.246c-3.265 1.501-8.363 2.319-13.646-.214-2.133-1.018-4.198-1.988-6.588-2.238-2.528-.259-5.049.245-7.389 1.198h-.002a1.38 1.38 0 01.057.125c4.521 10.289 15.103 16.997 26.342 16.654 11.021-.336 21.046-7.438 25.059-17.702.22-.562.418-1.123.601-1.694-3.794-2.789-9.752-6.299-12.056-5.858z"/></svg>