<svg xmlns="http://www.w3.org/2000/svg" width="326.904" height="326.904"><g fill-rule="evenodd"><path d="M274.234 26.917c-132.253 83.32-147.414 173.248-45.478 269.787l.58.585c-.076-.021-.142-.04-.2-.05a1.303 1.303 0 00-.182-.05c-117.321-27.32-189.554-58.661-216.7-94.021C3.796 192.142-.286 180.732.016 168.932v-4.264c-.28-13.3 3.802-25.874 12.238-37.719C42.718 84.141 130 50.8 274.101 26.917c-.012.012.032.012.133 0" fill="#fab40a"/><path d="M274.234 26.917c16.63-3.341 34.188-6.543 52.67-9.608-164.88 90.09-181.15 187.361-48.81 291.821l.45.464a2764.492 2764.492 0 00-49.207-12.305l-.581-.585C126.82 200.165 141.98 110.237 274.234 26.917" fill="#00adef"/></g></svg>