<svg xmlns="http://www.w3.org/2000/svg" width="200" height="200"><path fill="#2fa732" d="M160 200c22.092 0 40-17.908 40-40V40c0-22.092-17.908-40-40-40H40C17.909 0 0 17.908 0 40v120c0 22.092 17.909 40 40 40zM82.596 11.177h34.81a3.481 3.481 0 010 6.962h-34.81a3.481 3.481 0 010-6.962zM100 191.297c-5.622 0-10.18-4.559-10.18-10.18 0-5.623 4.558-10.182 10.18-10.182 5.623 0 10.181 4.559 10.181 10.182 0 5.621-4.558 10.18-10.181 10.18zm75-161.842c5.523 0 10 4.477 10 10v116c0 5.523-4.477 10-10 10H25c-5.522 0-10-4.477-10-10v-116c0-5.523 4.478-10 10-10z"/><path d="M65.996 65.389H49.963c-1.622 1.981-3.123 3.589-4.504 4.819-1.382 1.231-2.688 2.251-3.918 3.062a35.427 35.427 0 01-3.648 2.117 203.437 203.437 0 01-3.693 1.801l4.143 9.998 9.007-4.233v33.418h-9.007v11.979h36.029v-11.979h-8.377V65.389zM180.045 99.212V94.56h-77.719V32.727h-4.651v129.496h4.651V99.212z" fill="#353535"/><path d="M168.011 54.063h-15.132v7.206h-15.853c.54-.901 1.335-1.906 2.387-3.018a47.337 47.337 0 013.513-3.333 65.543 65.543 0 013.963-3.153 100.97 100.97 0 013.648-2.567c2.401-1.561 4.503-3.002 6.305-4.324 1.801-1.32 3.301-2.716 4.503-4.188 1.201-1.471 4.101-5.137 4.702-6.999l-19.159.063c-1.051 1.231-2.373 2.432-3.963 3.603a103.083 103.083 0 01-5.179 3.558 42.708 42.708 0 00-5.224 3.963 69.653 69.653 0 00-3.783 3.198 44.043 44.043 0 00-3.107 3.152 36.86 36.86 0 00-2.927 3.783 143.353 143.353 0 00-3.333 5.179v13.061h48.639zm-4.459 99.513c-.871-1.201-1.788-2.221-2.748-3.062a44.817 44.817 0 00-2.522-2.072c.6-.42 1.275-.975 2.027-1.666.75-.689 1.471-1.5 2.162-2.432.689-.93 1.275-1.996 1.756-3.197.48-1.201.721-2.582.721-4.145 0-2.881-.511-5.494-1.531-7.836a16.686 16.686 0 00-4.458-6.035c-1.952-1.68-4.354-2.973-7.206-3.873-2.853-.9-6.111-1.352-9.772-1.352-2.042 0-4.04.287-5.99.857a34.177 34.177 0 00-5.494 2.115c-1.711.842-3.243 1.758-4.594 2.748-1.351.99-2.418 1.936-3.198 2.838l8.737 10.537c1.561-1.68 3.272-3.002 5.134-3.963 1.861-.959 3.662-1.441 5.405-1.441.959 0 1.905.15 2.837.451a8.398 8.398 0 012.522 1.307c.75.57 1.365 1.305 1.847 2.205.48.902.721 1.953.721 3.154 0 2.041-.736 3.588-2.207 4.639-1.472 1.051-3.288 1.576-5.449 1.576h-6.575v10.719h6.755c2.281 0 4.098.48 5.449 1.439 1.351.963 2.027 1.674 2.027 4.135l16.753-.01c0-2.039-.301-1.857-.901-3.449-.602-1.589-1.338-2.986-2.208-4.187z" fill="#353535"/></svg>