<svg xmlns="http://www.w3.org/2000/svg" width="1096.143" height="1096.143" viewBox="0 0 290.021 290.021"><defs><linearGradient id="a" x1="370.3" x2="604.31" y1="48.996" y2="283" gradientTransform="translate(-319.7 99.82) scale(.29002)" gradientUnits="userSpaceOnUse"><stop stop-color="#00AAF4" offset=".12"/><stop stop-color="#00D258" offset=".88"/></linearGradient></defs><g stroke-width=".29"><path class="st0" d="M261.59 145.005l25.888-29.275c3.71-4.194 3.313-10.603-.88-14.31-4.192-3.71-10.603-3.315-14.311.878l-24.23 27.402-24.227-27.402c-3.71-4.194-10.116-4.588-14.312-.878-4.193 3.709-4.589 10.116-.88 14.31l25.886 29.275-25.888 29.275c-3.71 4.194-3.314 10.603.879 14.31 4.193 3.709 10.603 3.315 14.312-.879l24.228-27.402 24.229 27.402c3.71 4.194 10.116 4.588 14.312.879 4.193-3.71 4.588-10.116.879-14.31z" fill="#00d258"/><path class="st1" d="M-178.37 195.99c-26.474 0-48.014-21.537-48.014-48.014 0-26.477 21.54-48.014 48.014-48.014 26.473 0 48.014 21.537 48.014 48.014 0 26.477-21.54 48.014-48.014 48.014zm0-75.749c-15.293 0-27.735 12.442-27.735 27.735 0 15.292 12.442 27.735 27.735 27.735 15.292 0 27.735-12.442 27.735-27.735s-12.442-27.735-27.735-27.735z" fill="url(#a)" transform="translate(319.704 -2.965)"/><path class="st2" d="M48.014 193.025C21.537 193.025 0 171.484 0 145.01c0-26.473 21.537-48.014 48.014-48.014a47.995 47.995 0 0124.417 6.664c4.82 2.851 6.415 9.07 3.566 13.89-2.85 4.82-9.07 6.415-13.89 3.564a27.699 27.699 0 00-14.091-3.84c-15.293 0-27.735 12.442-27.735 27.735s12.442 27.735 27.735 27.735c4.971 0 9.846-1.33 14.092-3.84 4.82-2.851 11.038-1.256 13.889 3.564 2.85 4.82 1.258 11.038-3.566 13.889a48.003 48.003 0 01-24.417 6.664z" fill="#00aaf4"/></g></svg>