<svg xmlns="http://www.w3.org/2000/svg" width="236.648" height="236.648"><path d="M22.292 3.93h192.053c12.319 0 22.303 9.985 22.303 22.293V210.42c0 12.314-9.984 22.296-22.303 22.296H22.292C9.976 232.717 0 222.735 0 210.421V26.223C0 13.915 9.976 3.93 22.292 3.93" fill="#137bbd"/><path d="M66.733 199.937H18.468v-11.588h17.527v-48.376l-11.812 11.369-8.122-8.85 21.112-19.031h11.812v64.888h17.748zM127.538 172.055c0 8.956-1.192 15.456-3.583 19.487-3.581 6.198-10.338 9.29-20.269 9.294-6.755 0-12.147-1.794-16.18-5.38v4.48H75.805V120.04h12.934v28.051c3.324-3.356 8.995-5.037 17.02-5.037 8.775 0 14.768 2.73 17.972 8.176 2.539 4.178 3.807 11.122 3.807 20.825m-12.99 0c0-6.641-.762-11.139-2.295-13.495-1.528-2.385-4.663-3.58-9.402-3.58-5.641 0-9.45 1.14-11.422 3.412-1.947 2.244-2.915 6.796-2.915 13.663 0 6.908.968 11.48 2.915 13.719 1.972 2.237 5.781 3.357 11.422 3.357 4.739 0 7.874-1.176 9.402-3.527 1.533-2.354 2.296-6.866 2.296-13.549M153.294 199.941h-12.931V120.04h12.93zM215.893 199.937H204.7v-4.475c-4.072 3.58-9.468 5.375-16.187 5.375-9.932 0-16.35-2.863-19.257-8.57-1.61-3.132-2.41-9.07-2.41-17.801v-30.461h12.935v29.45c0 6.642.292 10.658.895 12.038 1.154 2.616 4.256 3.918 9.294 3.918 6.198 0 10.096-2.033 11.706-6.101.857-1.976 1.288-6.416 1.288-13.324v-25.981h12.93z" fill="#adda1a"/></svg>