<svg xmlns="http://www.w3.org/2000/svg" width="29.496" height="29.496" viewBox="0 0 29.495 29.496"><path d="M19.88.018L24.294 0v29.003h-4.43v-1.617c-1.441 1.406-3.251 2.11-5.308 2.11-5.484 0-9.352-4.57-9.352-11.021 0-6.417 3.78-10.845 9.229-10.845 2.162 0 3.744.615 5.449 2.056zm-.491 22.447c.316-.738.439-1.846.439-3.621 0-2.25-.087-3.34-.351-4.13-.475-1.618-2.373-2.848-4.342-2.848-3.252 0-5.273 2.6-5.273 6.767 0 4.008 2.004 6.592 5.132 6.592 1.987 0 3.78-1.143 4.395-2.76z" fill="#199ed9" fill-rule="evenodd"/></svg>