<svg xmlns="http://www.w3.org/2000/svg" width="343.075" height="343.075"><path d="M224.226 175.441c-12.708 0-23.004-10.295-23.004-23.003 0-1.34.114-2.654.341-3.93l-55.012-31.677a22.904 22.904 0 01-14.825 5.42c-12.708 0-23.008-10.3-23.008-23.003 0-12.704 10.3-23.004 23.008-23.004 12.708 0 23.008 10.3 23.008 23.004 0 1.463-.15 2.894-.414 4.284l54.812 31.559a22.895 22.895 0 0115.094-5.657c12.698 0 22.998 10.3 22.998 23.004 0 12.708-10.3 23.003-22.998 23.003m-69.774 30.55c0 12.704-10.295 23.003-23.003 23.003-12.7 0-23-10.3-23-23.003 0-12.708 10.3-23.008 23-23.008a22.895 22.895 0 0114.948 5.53l40.105-23.05a40.006 40.006 0 007.76 13.308l-40.178 23.095c.236 1.34.368 2.717.368 4.125m138.32-140.387L183.54 3.186a24.205 24.205 0 00-24.007 0L50.308 65.604a24.199 24.199 0 00-12.195 21.009v126.97a24.196 24.196 0 0012.1 20.954L238.25 343.075l.032-77.092 54.567-31.446a24.193 24.193 0 0012.112-20.963V86.613a24.204 24.204 0 00-12.19-21.01" fill="#042b48"/></svg>