<svg xmlns="http://www.w3.org/2000/svg" width="256" height="256" viewBox="0 0 26.214 26.214" preserveAspectRatio="xMidYMid"><path d="M13.107 0C5.868 0 0 5.868 0 13.107c0 7.239 5.868 13.107 13.107 13.107 7.239 0 13.107-5.868 13.107-13.107C26.214 5.868 20.346 0 13.107 0zM8.424 19.394c2.982 2.417 7.652 1.741 10.341-1.478-2.609-.346-5.69-1.163-8.188-2.137-.676 1.304-1.195 2.342-2.153 3.615zm7.67-13.18c-1.635.418-3.773 4.064-5.03 8.056 3.049 1.383 5.438 1.949 8.738 2.347 0 0 3.05-6.82-3.709-10.404zm-1.1 16.763c-3.562.685-8.173-1.179-9.886-3.913 0 0 2.45-2.718 3.127-4.307-.73-.566-1.168-.891-1.633-1.306-2.686-2.395-2.639-5.69.102-8.031 3.055-2.61 7.706-3.032 11.294-1.025 3.623 2.026 5.69 6.196 5.034 10.154-.72 4.34-3.977 7.647-8.039 8.428zM13.735 5.689c-2.054-.03-3.606.383-5.05 1.403-2.37 1.676-2.255 4.35.286 5.946 1.212-2.791 2.193-5.33 4.764-7.349" fill="#4c4c4b"/></svg>