<svg xmlns="http://www.w3.org/2000/svg" width="84.998" height="84.998"  xmlns:v="https://vecta.io/nano"><path fill="#0083c9" d="M69.509 31.405a5.93 5.93 0 0 1 2.214.417 5.636 5.636 0 0 1 1.738 1.083 4.623 4.623 0 0 1 1.095 1.646 3.92 3.92 0 0 1 .262 1.959l-1.619 16.336h-3.524l1.619-16.336c.063-.57-.111-1.05-.524-1.438-.397-.39-.92-.583-1.571-.583H56.365a2.65 2.65 0 0 0-1.595.52c-.477.349-.771.779-.881 1.293l-.023.208-1.643 16.336h-3.524l2.976-29.838h3.524v.083l-.881 8.752a7.046 7.046 0 0 1 1.143-.313 5.695 5.695 0 0 1 1.214-.125z"/><g fill-rule="evenodd" fill="#ff511e"><path d="M18.894 36.029c-4.337 4.633-8.361 9.472-11.718 14.719-1.612 2.52-3.059 5.105-4.027 7.868-.609 1.749-1 3.508-.767 5.314.246 1.967 1.506 3.28 3.655 3.7 1.915.37 3.849.123 5.768-.334 5.937-1.416 11.411-3.895 16.681-6.793 1.363-.753 2.982-1.415 4.208-2.407.969-.786-.32-1.73-1.172-1.338-1.128.505-2.2 1.18-3.313 1.733a68.607 68.607 0 01-6.877 2.983c-2.326.86-4.709 1.572-7.203 1.723-.709.045-1.43.042-2.123-.035-2.773-.298-4.277-1.847-4.304-4.383-.018-1.6.439-3.141 1.054-4.656 1.25-3.038 3.083-5.818 5.085-8.528 4.612-6.255 10.09-11.883 16.01-17.174 7.505-6.704 15.658-12.651 24.64-17.613 4.322-2.388 8.777-4.501 13.647-5.683 1.491-.358 2.989-.54 4.492-.397 2.685.25 4.158 1.753 4.173 4.217 0 1.669-.488 3.274-1.128 4.859-1.526 3.769-3.72 7.259-6.26 10.57-.799 1.029-.856 1.877-.251 2.914.163-.134.33-.232.446-.361 3.842-4.614 7.365-9.407 9.951-14.657.836-1.7 1.44-3.485 2.012-5.266.4-1.223.39-2.478.133-3.72C81.365 1.567 80.252.572 78.391.21c-1.789-.345-3.597-.225-5.421.088-4.029.686-7.77 2.186-11.416 3.905C50.757 9.28 41.193 15.98 32.216 23.432c-.3.25-.608.49-.919.729-.052.036-11.901 11.322-12.403 11.868z"/><path d="M49.845 71.36c5.078 3.813 10.321 7.292 15.9 10.06 2.681 1.33 5.408 2.487 8.259 3.15 1.804.419 3.594.616 5.366.19 1.93-.458 3.096-1.852 3.281-4.035.162-1.945-.294-3.84-.955-5.697-2.05-5.748-5.105-10.922-8.559-15.85-.896-1.273-1.729-2.811-2.847-3.921-.886-.88-1.686.505-1.204 1.31.625 1.068 1.413 2.058 2.082 3.105a68.088 68.088 0 013.708 6.514c1.105 2.22 2.073 4.514 2.493 6.975.122.702.196 1.419.195 2.114.002 2.79-1.373 4.454-3.894 4.752-1.587.192-3.167-.095-4.74-.544-3.157-.912-6.119-2.435-9.026-4.13-6.722-3.91-12.908-8.746-18.808-14.06-7.477-6.736-14.27-14.201-20.176-22.591-2.842-4.04-5.422-8.24-7.127-12.95-.516-1.445-.859-2.917-.879-4.424-.043-2.696 1.292-4.325 3.742-4.604 1.657-.183 3.308.129 4.953.595 3.912 1.108 7.617 2.914 11.185 5.08 1.107.684 1.958.647 2.923-.067-.15-.146-.266-.3-.406-.401-5.005-3.322-10.15-6.307-15.649-8.31-1.78-.646-3.623-1.056-5.45-1.431-1.26-.266-2.508-.118-3.715.27-1.672.526-2.541 1.738-2.701 3.63-.147 1.816.166 3.599.675 5.379 1.12 3.93 3.016 7.489 5.116 10.927 6.22 10.183 13.915 18.966 22.294 27.084.281.273.554.553.822.839.043.045 12.544 10.602 13.142 11.04z"/></g></svg>