<svg xmlns="http://www.w3.org/2000/svg" width="1200" height="1200"><filter x="-.2" y="-.2" width="1.4" height="1.4" id="a"><feGaussianBlur in="SourceAlpha" result="blur" stdDeviation="4"/><feOffset dy="4" dx="4" in="blur" result="offsetBlur"/><feSpecularLighting in="blur" result="specOut" surfaceScale="5" specularExponent="10" lighting-color="#fff"><fePointLight x="-5000" y="-10000" z="-20000"/></feSpecularLighting><feComposite in="specOut" in2="SourceAlpha" result="specOut" operator="in"/><feComposite k2="1" k3="1" in="SourceGraphic" in2="specOut" result="litPaint" operator="arithmetic"/><feMerge><feMergeNode in="offsetBlur"/><feMergeNode in="litPaint"/></feMerge></filter><path d="M1162.418 950.424c0-43.275-17.532-82.455-45.88-110.825 1.784-5.959 2.714-12.304 2.714-18.94 0-14.682-5.207-42.135-40.079-61.045-20.301-11.005-46.102-16.584-76.689-16.584h-.199c-26.417.168-50.628 5.01-71.895 14.365-.876.383-1.728.793-2.592 1.188-42.6-45.419-103.146-73.803-170.331-73.803a234.635 234.635 0 00-46.231 4.584c-57.058-61.44-138.526-99.9-228.984-99.9-142.268 0-262.32 95.102-300.088 225.193a123.32 123.32 0 00-18.626 2.669v-22.411c0-17.219-2.389-30.02-7.517-40.281l-.181-.356c-5.191-10.066-13.103-18.209-23.524-24.206-9.922-5.707-20.607-8.6-31.756-8.6-11.155 0-21.842 2.895-31.756 8.6-10.425 5.995-18.343 14.145-23.532 24.221l-.166.328c-5.133 10.259-7.524 23.063-7.524 40.294v233.366c0 17.38 2.392 30.251 7.526 40.51l.164.32c5.189 10.078 13.107 18.228 23.524 24.218 9.922 5.71 20.609 8.605 31.765 8.605 11.148 0 21.833-2.895 31.764-8.605 7.549-4.343 13.762-9.832 18.598-16.349 30.938 33.83 75.434 55.051 124.89 55.051a169.64 169.64 0 0038.265-4.346c51.294 33.416 112.529 52.85 178.312 52.85 62.799 0 121.455-17.711 171.274-48.39 28.71 12.611 60.437 19.625 93.807 19.625 62.708 0 119.636-24.722 161.583-64.947 17.123 8.939 36.015 14.788 56.57 17.511a157.609 157.609 0 0030.007 2.88c23.182 0 45.187-5.037 64.986-14.066 5.293-2.312 10.391-4.908 15.262-7.831a88.873 88.873 0 006.499-4.278c42.214-28.091 70.04-76.101 70.04-130.615z" fill="#fff" filter="url(#a)" transform="translate(0 -285)"/><path d="M131.954 864.192c20.092-12.139 39.348-18.209 57.766-18.209 22.186 0 40.672 6.979 55.464 20.93 7.671 7.257 13.15 15.419 16.43 24.488 3.276 9.071 4.918 20.511 4.918 34.325v102.556c0 12.001-1.396 20.792-4.186 26.371-2.375 4.605-6.105 8.372-11.197 11.302-5.096 2.93-10.433 4.395-16.011 4.395-5.582 0-10.919-1.465-16.011-4.395-5.096-2.93-8.826-6.697-11.197-11.302-2.793-5.579-4.186-14.37-4.186-26.371v-84.765c0-13.533-2.93-23.86-8.791-30.976-6.838-8.231-15.628-12.349-26.371-12.349-10.465 0-19.187 3.699-26.162 11.093-6.979 7.397-10.465 16.744-10.465 28.046v88.951c0 12.001-1.396 20.792-4.186 26.371-2.375 4.605-6.105 8.372-11.197 11.302-5.096 2.93-10.433 4.395-16.011 4.395-5.583 0-10.919-1.465-16.011-4.395-5.096-2.93-8.827-6.697-11.198-11.302-2.793-5.579-4.186-14.37-4.186-26.371V794.915c0-11.857 1.393-20.58 4.186-26.162 2.371-4.604 6.102-8.372 11.198-11.302 5.092-2.93 10.429-4.396 16.011-4.396 5.578 0 10.916 1.465 16.011 4.396 5.092 2.93 8.822 6.697 11.197 11.302 2.79 5.582 4.186 14.305 4.186 26.162v69.277zm367.106 25.116v93.346c0 21.349-5.096 38.651-15.279 51.906-8.653 11.165-19.814 19.955-33.487 26.372-15.351 7.253-31.676 10.883-48.976 10.883-24.278 0-45.558-6.488-63.835-19.465-11.861-8.372-20.479-18.104-25.848-29.197-5.373-11.093-8.058-24.592-8.058-40.499v-93.346c0-11.857 1.393-20.648 4.186-26.372 2.371-4.604 6.07-8.372 11.093-11.302 5.023-2.93 10.393-4.396 16.116-4.396 5.579 0 10.916 1.465 16.011 4.396 5.092 2.93 8.823 6.697 11.198 11.302 2.79 5.582 4.186 14.373 4.186 26.372v85.603c0 6.56.733 11.792 2.198 15.697 1.465 3.908 4.082 7.675 7.849 11.302 6.834 6.698 15.138 10.046 24.906 10.046 9.765 0 18.068-3.349 24.906-10.046 6.698-6.417 10.046-15.417 10.046-26.999v-85.603c0-11.999 1.393-20.79 4.186-26.372 2.371-4.604 6.102-8.372 11.197-11.302 5.092-2.93 10.429-4.396 16.011-4.396 5.579 0 10.916 1.465 16.011 4.396 5.092 2.93 8.823 6.697 11.197 11.302 2.79 5.583 4.186 14.373 4.186 26.372zm99.317-24.906c9.347-6.834 17.823-11.648 25.432-14.441 7.603-2.79 16.079-4.186 25.428-4.186 26.091 0 48.766 10.537 68.021 31.604 19.812 21.489 29.72 48.348 29.72 80.58 0 35.581-11.093 64.463-33.278 86.649-17.861 18-39.138 26.999-63.835 26.999-11.86 0-21.87-1.955-30.032-5.86-8.163-3.905-15.595-10.255-22.292-19.046-6.418 15.769-16.324 23.65-29.719 23.65-9.49 0-17.234-3.103-23.232-9.313-6.001-6.208-9-14.265-9-24.174V794.915c0-11.857 1.394-20.58 4.186-26.162 2.371-4.604 6.069-8.372 11.093-11.302 5.023-2.93 10.393-4.396 16.116-4.396 5.72 0 11.093 1.465 16.116 4.396 5.023 2.93 8.718 6.697 11.092 11.302 2.791 5.582 4.186 14.305 4.186 26.162v69.487zm43.115 39.975c-12.278 0-22.604 5.128-30.976 15.383-8.372 10.255-12.558 22.99-12.558 38.197 0 16.465 4.186 29.72 12.558 39.766 8.65 10.187 19.046 15.279 31.185 15.279 12 0 22.083-5.196 30.245-15.593 8.163-10.392 12.242-23.336 12.242-38.824 0-14.651-3.839-27.278-11.511-37.883-7.815-10.743-18.208-16.184-31.185-16.325zm156.083-151.321c10.465 0 19.323 4.049 26.581 12.139 6.278 6.979 9.418 15.142 9.418 24.488 0 10.883-4.048 19.956-12.139 27.208-6.979 6.279-15.142 9.418-24.488 9.418-10.883 0-19.955-4.045-27.208-12.139-6.279-6.976-9.419-15.206-9.419-24.697 0-10.183 3.591-18.801 10.779-25.848 7.184-7.043 16.011-10.569 26.476-10.569zm-32.65 275.225V889.308c0-11.999 1.394-20.79 4.187-26.372 2.37-4.604 6.103-8.372 11.197-11.302 5.091-2.93 10.428-4.396 16.011-4.396 5.58 0 10.951 1.465 16.116 4.396 5.161 2.93 8.858 6.697 11.093 11.302 2.789 5.582 4.186 14.373 4.186 26.372v138.973c0 12.001-1.396 20.792-4.186 26.371-2.234 4.605-5.932 8.372-11.093 11.302-5.165 2.93-10.536 4.395-16.116 4.395-5.583 0-10.92-1.465-16.011-4.395-5.095-2.93-8.827-6.697-11.197-11.302-2.794-5.579-4.187-14.369-4.187-26.371zm237.559-253.668c25.394 0 45.94 4.258 61.638 12.767 15.697 8.512 23.546 19.605 23.546 33.278 0 8.372-2.512 15.279-7.534 20.72-5.023 5.442-11.442 8.163-19.256 8.163-5.022 0-12.977-2.162-23.859-6.488-11.861-4.741-23.304-7.116-34.325-7.116-19.674 0-35.512 5.933-47.51 17.79-16.466 16.325-24.697 40.185-24.697 71.58 0 31.395 8.091 54.698 24.278 69.905 12.695 11.861 28.812 17.79 48.348 17.79 8.231 0 14.232-.523 17.999-1.57 3.768-1.046 12.977-4.847 27.628-11.407 5.16-2.23 9.975-3.349 14.441-3.349 7.394 0 13.709 2.93 18.941 8.791 5.232 5.861 7.849 12.839 7.849 20.93 0 13.117-6.77 23.722-20.302 31.813-18.141 10.884-40.257 16.325-66.348 16.325-40.325 0-73.325-12.277-98.997-36.836-29.302-28.184-43.952-66.276-43.952-114.276 0-15.207 2.057-30.589 6.174-46.15 4.114-15.557 9.732-28.988 16.849-40.29 14.232-22.604 34.115-39.485 59.649-50.65 17.44-7.67 37.255-11.579 59.44-11.72z" fill="#0f6797" filter="url(#a)" transform="translate(0 -285)"/></svg>