<svg xmlns="http://www.w3.org/2000/svg" width="21.745" height="21.745"><g fill-rule="evenodd"><path d="M13.317 6.692c0-3.122-1.521-5.807-2.679-6.681-.004-.003-.088-.05-.081.075l-.002.004c-.096 6.028-3.177 7.662-4.87 9.863C1.774 15.032 5.41 20.6 9.112 21.63c2.07.575-.479-1.02-.807-4.388-.397-4.071 5.011-7.18 5.011-10.55" fill="#d7e2f2"/><path d="M15.094 8.745c-.024-.016-.058-.027-.081.011-.064.759-.84 2.382-1.822 3.873-3.334 5.055-1.434 7.493-.366 8.802.62.76 0 0 1.55-.777.122-.06 3.026-1.688 3.34-5.397.305-3.591-1.853-5.855-2.621-6.512" fill="#357ce1"/></g></svg>